<?xml version="1.0" encoding="UTF-8"?>
<svg width="200" height="200" viewBox="0 0 200 200" xmlns="http://www.w3.org/2000/svg">
  <defs>
    <linearGradient id="bunnyGradient" x1="0%" y1="0%" x2="100%" y2="100%">
      <stop offset="0%" style="stop-color:#4A90E2;stop-opacity:1" />
      <stop offset="100%" style="stop-color:#7B68EE;stop-opacity:1" />
    </linearGradient>
  </defs>
  
  <!-- Bunny Head -->
  <ellipse cx="100" cy="120" rx="45" ry="35" fill="url(#bunnyGradient)" stroke="#2C3E50" stroke-width="2"/>
  
  <!-- Bunny Ears -->
  <ellipse cx="80" cy="75" rx="12" ry="25" fill="url(#bunnyGradient)" stroke="#2C3E50" stroke-width="2" transform="rotate(-15 80 75)"/>
  <ellipse cx="120" cy="75" rx="12" ry="25" fill="url(#bunnyGradient)" stroke="#2C3E50" stroke-width="2" transform="rotate(15 120 75)"/>
  
  <!-- Inner ears -->
  <ellipse cx="80" cy="75" rx="6" ry="15" fill="#FFB6C1" transform="rotate(-15 80 75)"/>
  <ellipse cx="120" cy="75" rx="6" ry="15" fill="#FFB6C1" transform="rotate(15 120 75)"/>
  
  <!-- Eyes -->
  <circle cx="88" cy="115" r="6" fill="#2C3E50"/>
  <circle cx="112" cy="115" r="6" fill="#2C3E50"/>
  <circle cx="90" cy="113" r="2" fill="white"/>
  <circle cx="114" cy="113" r="2" fill="white"/>
  
  <!-- Nose -->
  <ellipse cx="100" cy="125" rx="3" ry="2" fill="#FF69B4"/>
  
  <!-- Mouth -->
  <path d="M 100 128 Q 95 132 90 130" stroke="#2C3E50" stroke-width="1.5" fill="none"/>
  <path d="M 100 128 Q 105 132 110 130" stroke="#2C3E50" stroke-width="1.5" fill="none"/>
  
  <!-- Text - Grief to Design -->
  <text x="100" y="170" font-family="Arial, sans-serif" font-size="14" font-weight="bold" text-anchor="middle" fill="#2C3E50">
    grief→design
  </text>
  
  <!-- Subtitle -->
  <text x="100" y="185" font-family="Arial, sans-serif" font-size="10" text-anchor="middle" fill="#7F8C8D">
    chase white rabbit
  </text>
  
  <!-- Decorative elements representing transformation -->
  <circle cx="40" cy="50" r="3" fill="#4A90E2" opacity="0.6"/>
  <circle cx="160" cy="60" r="2" fill="#7B68EE" opacity="0.7"/>
  <circle cx="30" cy="140" r="2.5" fill="#4A90E2" opacity="0.5"/>
  <circle cx="170" cy="130" r="3" fill="#7B68EE" opacity="0.6"/>
</svg>
